<svg width="926" height="141" viewBox="0 0 926 141" fill="none" xmlns="http://www.w3.org/2000/svg">
<path d="M35.5466 107.967H75.6636V139.134H0V1.96063H35.5456V107.969L35.5466 107.967ZM151.236 141C109.813 141 80.0531 112.912 80.0531 70.5478C80.0531 27.9028 109.815 0 151.236 0C192.753 0 222.515 27.9009 222.515 70.5478C222.515 112.913 192.753 141 151.236 141ZM151.236 108.713C171.948 108.713 187.435 94.0626 187.435 70.5472C187.435 47.0317 171.948 32.2882 151.236 32.2882C130.618 32.2882 115.317 47.0317 115.317 70.5472C115.317 94.0626 130.618 108.713 151.236 108.713ZM299.307 141C259.003 141 230.173 112.912 230.173 70.9204C230.173 28.0892 259.934 0 301.356 0C328.878 0 351.082 12.2243 363.119 32.4737L331.959 49.0839C325.895 36.4865 314.979 30.4207 301.357 30.4207C280.739 30.4207 265.625 44.6979 265.625 69.9864C265.625 93.6882 279.06 110.672 302.756 110.672C315.911 110.672 330.465 105.352 334.85 89.8622H302.943V61.7745H368.065V139.13H340.542V124.387C331.959 134.558 318.804 140.997 299.306 140.997L299.307 141ZM388.69 139.134V1.96063H441.773C486.649 1.96063 508.481 28.8353 508.481 70.5448C508.481 112.163 486.649 139.129 441.773 139.129H388.69V139.134ZM424.238 107.967H439.911C461.463 107.967 471.072 95.5556 471.072 70.5476C471.072 45.446 461.463 32.8486 439.911 32.8486H424.238V107.969V107.967ZM587.881 141C546.458 141 516.698 112.912 516.698 70.5478C516.698 27.9028 546.46 0 587.881 0C629.398 0 659.16 27.9009 659.16 70.5478C659.16 112.913 629.398 141 587.881 141ZM587.881 108.713C608.593 108.713 624.08 94.0626 624.08 70.5472C624.08 47.0317 608.593 32.2882 587.881 32.2882C567.263 32.2882 551.962 47.0317 551.962 70.5472C551.962 94.0626 567.263 108.713 587.881 108.713ZM735.952 141C695.648 141 666.818 112.912 666.818 70.9204C666.818 28.0892 696.579 0 738.001 0C765.523 0 787.727 12.2243 799.764 32.4737L768.603 49.0839C762.539 36.4865 751.624 30.4207 738.002 30.4207C717.384 30.4207 702.27 44.6979 702.27 69.9864C702.27 93.6882 715.704 110.672 739.401 110.672C752.556 110.672 767.11 105.352 771.495 89.8622H739.588V61.7745H804.709V139.13H777.187V124.387C768.604 134.558 755.449 140.997 735.951 140.997L735.952 141ZM872.915 141C842.874 141 818.432 126.536 814.605 99.0082L851.457 90.6099C852.483 105.54 861.813 112.539 874.408 112.539C883.551 112.539 889.148 108.153 889.148 100.314C889.148 90.0499 875.994 86.224 860.693 80.9981C841.381 74.5592 819.737 66.5345 819.737 41.246C819.737 15.6776 840.448 0.000956841 870.021 0.000956841C894.092 0.000956841 920.306 9.51913 926 37.8868L891.854 46.2851C889.895 33.874 883.364 28.4618 872.355 28.4618C862.559 28.4618 855.655 32.2877 855.655 40.313C855.655 47.9649 867.97 51.0442 882.058 55.6165C901.743 62.1486 926 71.1068 926 98.2614C926 128.402 900.623 141 872.916 141L872.915 141Z" fill="#C83840"/>
</svg>
