<svg width="1291" height="769" viewBox="0 0 1291 769" fill="none" xmlns="http://www.w3.org/2000/svg">
<rect width="1291" height="769" rx="67" fill="#101010"/>
<path d="M218.547 549.967H258.664V581.134H183V443.961H218.546V549.969L218.547 549.967ZM334.236 583C292.813 583 263.053 554.912 263.053 512.548C263.053 469.903 292.815 442 334.236 442C375.753 442 405.515 469.901 405.515 512.548C405.515 554.913 375.753 583 334.236 583ZM334.236 550.713C354.948 550.713 370.435 536.063 370.435 512.547C370.435 489.032 354.948 474.288 334.236 474.288C313.618 474.288 298.317 489.032 298.317 512.547C298.317 536.063 313.618 550.713 334.236 550.713ZM482.307 583C442.003 583 413.173 554.912 413.173 512.92C413.173 470.089 442.934 442 484.356 442C511.878 442 534.082 454.224 546.119 474.474L514.959 491.084C508.895 478.486 497.979 472.421 484.357 472.421C463.739 472.421 448.625 486.698 448.625 511.986C448.625 535.688 462.06 552.672 485.756 552.672C498.911 552.672 513.465 547.352 517.85 531.862H485.943V503.774H551.065V581.13H523.542V566.387C514.959 576.558 501.804 582.997 482.306 582.997L482.307 583ZM571.69 581.134V443.961H624.773C669.649 443.961 691.481 470.835 691.481 512.545C691.481 554.163 669.649 581.129 624.773 581.129H571.69V581.134ZM607.238 549.967H622.911C644.463 549.967 654.072 537.556 654.072 512.548C654.072 487.446 644.463 474.849 622.911 474.849H607.238V549.969V549.967ZM770.881 583C729.458 583 699.698 554.912 699.698 512.548C699.698 469.903 729.46 442 770.881 442C812.398 442 842.16 469.901 842.16 512.548C842.16 554.913 812.398 583 770.881 583ZM770.881 550.713C791.593 550.713 807.08 536.063 807.08 512.547C807.08 489.032 791.593 474.288 770.881 474.288C750.263 474.288 734.962 489.032 734.962 512.547C734.962 536.063 750.263 550.713 770.881 550.713ZM918.952 583C878.648 583 849.818 554.912 849.818 512.92C849.818 470.089 879.579 442 921.001 442C948.523 442 970.727 454.224 982.764 474.474L951.603 491.084C945.539 478.486 934.624 472.421 921.002 472.421C900.384 472.421 885.27 486.698 885.27 511.986C885.27 535.688 898.704 552.672 922.401 552.672C935.556 552.672 950.11 547.352 954.495 531.862H922.588V503.774H987.709V581.13H960.187V566.387C951.604 576.558 938.449 582.997 918.951 582.997L918.952 583ZM1055.92 583C1025.87 583 1001.43 568.536 997.605 541.008L1034.46 532.61C1035.48 547.54 1044.81 554.539 1057.41 554.539C1066.55 554.539 1072.15 550.153 1072.15 542.314C1072.15 532.05 1058.99 528.224 1043.69 522.998C1024.38 516.559 1002.74 508.534 1002.74 483.246C1002.74 457.678 1023.45 442.001 1053.02 442.001C1077.09 442.001 1103.31 451.519 1109 479.887L1074.85 488.285C1072.89 475.874 1066.36 470.462 1055.36 470.462C1045.56 470.462 1038.66 474.288 1038.66 482.313C1038.66 489.965 1050.97 493.044 1065.06 497.616C1084.74 504.149 1109 513.107 1109 540.261C1109 570.402 1083.62 583 1055.92 583L1055.92 583Z" fill="#C83840"/>
<path d="M665.062 83C655.781 83 674.343 120.75 655.781 101.875C637.219 82.9999 627.938 83 627.938 83C609.375 83 646.5 130.187 627.938 149.062C609.375 167.937 590.812 158.499 572.25 196.249C553.687 233.999 535.125 233.999 498 252.875C498 281.187 535.125 300.062 562.969 300.062C637.219 243.436 665.062 328.375 702.187 385C795 347.25 739.312 271.749 795 186.811C737.196 182.3 683.625 83 665.062 83Z" fill="#C83840"/>
<path d="M229.383 621.805C225.617 621.805 222.641 623.062 220.453 625.578C218.281 628.078 217.195 631.508 217.195 635.867C217.195 640.352 218.242 643.82 220.336 646.273C222.445 648.711 225.445 649.93 229.336 649.93C231.727 649.93 234.453 649.5 237.516 648.641V652.133C235.141 653.023 232.211 653.469 228.727 653.469C223.68 653.469 219.781 651.938 217.031 648.875C214.297 645.812 212.93 641.461 212.93 635.82C212.93 632.289 213.586 629.195 214.898 626.539C216.227 623.883 218.133 621.836 220.617 620.398C223.117 618.961 226.055 618.242 229.43 618.242C233.023 618.242 236.164 618.898 238.852 620.211L237.164 623.633C234.57 622.414 231.977 621.805 229.383 621.805ZM248.297 653H244.406V616.531H248.297V653ZM267.398 653.469C263.602 653.469 260.602 652.312 258.398 650C256.211 647.688 255.117 644.477 255.117 640.367C255.117 636.227 256.133 632.938 258.164 630.5C260.211 628.062 262.953 626.844 266.391 626.844C269.609 626.844 272.156 627.906 274.031 630.031C275.906 632.141 276.844 634.93 276.844 638.398V640.859H259.148C259.227 643.875 259.984 646.164 261.422 647.727C262.875 649.289 264.914 650.07 267.539 650.07C270.305 650.07 273.039 649.492 275.742 648.336V651.805C274.367 652.398 273.062 652.82 271.828 653.07C270.609 653.336 269.133 653.469 267.398 653.469ZM266.344 630.102C264.281 630.102 262.633 630.773 261.398 632.117C260.18 633.461 259.461 635.32 259.242 637.695H272.672C272.672 635.242 272.125 633.367 271.031 632.07C269.938 630.758 268.375 630.102 266.344 630.102ZM299.297 653L298.523 649.344H298.336C297.055 650.953 295.773 652.047 294.492 652.625C293.227 653.188 291.641 653.469 289.734 653.469C287.188 653.469 285.188 652.812 283.734 651.5C282.297 650.188 281.578 648.32 281.578 645.898C281.578 640.711 285.727 637.992 294.023 637.742L298.383 637.602V636.008C298.383 633.992 297.945 632.508 297.07 631.555C296.211 630.586 294.828 630.102 292.922 630.102C290.781 630.102 288.359 630.758 285.656 632.07L284.461 629.094C285.727 628.406 287.109 627.867 288.609 627.477C290.125 627.086 291.641 626.891 293.156 626.891C296.219 626.891 298.484 627.57 299.953 628.93C301.438 630.289 302.18 632.469 302.18 635.469V653H299.297ZM290.508 650.258C292.93 650.258 294.828 649.594 296.203 648.266C297.594 646.938 298.289 645.078 298.289 642.688V640.367L294.398 640.531C291.305 640.641 289.07 641.125 287.695 641.984C286.336 642.828 285.656 644.148 285.656 645.945C285.656 647.352 286.078 648.422 286.922 649.156C287.781 649.891 288.977 650.258 290.508 650.258ZM321.938 626.844C323.078 626.844 324.102 626.938 325.008 627.125L324.469 630.734C323.406 630.5 322.469 630.383 321.656 630.383C319.578 630.383 317.797 631.227 316.312 632.914C314.844 634.602 314.109 636.703 314.109 639.219V653H310.219V627.312H313.43L313.875 632.07H314.062C315.016 630.398 316.164 629.109 317.508 628.203C318.852 627.297 320.328 626.844 321.938 626.844ZM350.578 650.258C351.266 650.258 351.93 650.211 352.57 650.117C353.211 650.008 353.719 649.898 354.094 649.789V652.766C353.672 652.969 353.047 653.133 352.219 653.258C351.406 653.398 350.672 653.469 350.016 653.469C345.047 653.469 342.562 650.852 342.562 645.617V630.336H338.883V628.461L342.562 626.844L344.203 621.359H346.453V627.312H353.906V630.336H346.453V645.453C346.453 647 346.82 648.188 347.555 649.016C348.289 649.844 349.297 650.258 350.578 650.258ZM376.828 653V636.383C376.828 634.289 376.352 632.727 375.398 631.695C374.445 630.664 372.953 630.148 370.922 630.148C368.219 630.148 366.242 630.883 364.992 632.352C363.758 633.82 363.141 636.227 363.141 639.57V653H359.25V616.531H363.141V627.57C363.141 628.898 363.078 630 362.953 630.875H363.188C363.953 629.641 365.039 628.672 366.445 627.969C367.867 627.25 369.484 626.891 371.297 626.891C374.438 626.891 376.789 627.641 378.352 629.141C379.93 630.625 380.719 632.992 380.719 636.242V653H376.828ZM399.586 653.469C395.789 653.469 392.789 652.312 390.586 650C388.398 647.688 387.305 644.477 387.305 640.367C387.305 636.227 388.32 632.938 390.352 630.5C392.398 628.062 395.141 626.844 398.578 626.844C401.797 626.844 404.344 627.906 406.219 630.031C408.094 632.141 409.031 634.93 409.031 638.398V640.859H391.336C391.414 643.875 392.172 646.164 393.609 647.727C395.062 649.289 397.102 650.07 399.727 650.07C402.492 650.07 405.227 649.492 407.93 648.336V651.805C406.555 652.398 405.25 652.82 404.016 653.07C402.797 653.336 401.32 653.469 399.586 653.469ZM398.531 630.102C396.469 630.102 394.82 630.773 393.586 632.117C392.367 633.461 391.648 635.32 391.43 637.695H404.859C404.859 635.242 404.312 633.367 403.219 632.07C402.125 630.758 400.562 630.102 398.531 630.102ZM438.422 653.469C434.703 653.469 431.82 652.328 429.773 650.047C427.742 647.75 426.727 644.508 426.727 640.32C426.727 636.023 427.758 632.703 429.82 630.359C431.898 628.016 434.852 626.844 438.68 626.844C439.914 626.844 441.148 626.977 442.383 627.242C443.617 627.508 444.586 627.82 445.289 628.18L444.094 631.484C443.234 631.141 442.297 630.859 441.281 630.641C440.266 630.406 439.367 630.289 438.586 630.289C433.367 630.289 430.758 633.617 430.758 640.273C430.758 643.43 431.391 645.852 432.656 647.539C433.938 649.227 435.828 650.07 438.328 650.07C440.469 650.07 442.664 649.609 444.914 648.688V652.133C443.195 653.023 441.031 653.469 438.422 653.469ZM454.922 653H451.031V616.531H454.922V653ZM466.828 627.312V643.977C466.828 646.07 467.305 647.633 468.258 648.664C469.211 649.695 470.703 650.211 472.734 650.211C475.422 650.211 477.383 649.477 478.617 648.008C479.867 646.539 480.492 644.141 480.492 640.812V627.312H484.383V653H481.172L480.609 649.555H480.398C479.602 650.82 478.492 651.789 477.07 652.461C475.664 653.133 474.055 653.469 472.242 653.469C469.117 653.469 466.773 652.727 465.211 651.242C463.664 649.758 462.891 647.383 462.891 644.117V627.312H466.828ZM500.953 650.258C501.641 650.258 502.305 650.211 502.945 650.117C503.586 650.008 504.094 649.898 504.469 649.789V652.766C504.047 652.969 503.422 653.133 502.594 653.258C501.781 653.398 501.047 653.469 500.391 653.469C495.422 653.469 492.938 650.852 492.938 645.617V630.336H489.258V628.461L492.938 626.844L494.578 621.359H496.828V627.312H504.281V630.336H496.828V645.453C496.828 647 497.195 648.188 497.93 649.016C498.664 649.844 499.672 650.258 500.953 650.258ZM517.922 650.258C518.609 650.258 519.273 650.211 519.914 650.117C520.555 650.008 521.062 649.898 521.438 649.789V652.766C521.016 652.969 520.391 653.133 519.562 653.258C518.75 653.398 518.016 653.469 517.359 653.469C512.391 653.469 509.906 650.852 509.906 645.617V630.336H506.227V628.461L509.906 626.844L511.547 621.359H513.797V627.312H521.25V630.336H513.797V645.453C513.797 647 514.164 648.188 514.898 649.016C515.633 649.844 516.641 650.258 517.922 650.258ZM537.445 653.469C533.648 653.469 530.648 652.312 528.445 650C526.258 647.688 525.164 644.477 525.164 640.367C525.164 636.227 526.18 632.938 528.211 630.5C530.258 628.062 533 626.844 536.438 626.844C539.656 626.844 542.203 627.906 544.078 630.031C545.953 632.141 546.891 634.93 546.891 638.398V640.859H529.195C529.273 643.875 530.031 646.164 531.469 647.727C532.922 649.289 534.961 650.07 537.586 650.07C540.352 650.07 543.086 649.492 545.789 648.336V651.805C544.414 652.398 543.109 652.82 541.875 653.07C540.656 653.336 539.18 653.469 537.445 653.469ZM536.391 630.102C534.328 630.102 532.68 630.773 531.445 632.117C530.227 633.461 529.508 635.32 529.289 637.695H542.719C542.719 635.242 542.172 633.367 541.078 632.07C539.984 630.758 538.422 630.102 536.391 630.102ZM565.266 626.844C566.406 626.844 567.43 626.938 568.336 627.125L567.797 630.734C566.734 630.5 565.797 630.383 564.984 630.383C562.906 630.383 561.125 631.227 559.641 632.914C558.172 634.602 557.438 636.703 557.438 639.219V653H553.547V627.312H556.758L557.203 632.07H557.391C558.344 630.398 559.492 629.109 560.836 628.203C562.18 627.297 563.656 626.844 565.266 626.844ZM577.219 647.422L577.57 647.961C577.164 649.523 576.578 651.336 575.812 653.398C575.047 655.477 574.25 657.406 573.422 659.188H570.492C570.914 657.562 571.375 655.555 571.875 653.164C572.391 650.773 572.75 648.859 572.953 647.422H577.219ZM613.125 653L601.5 622.625H601.312C601.531 625.031 601.641 627.891 601.641 631.203V653H597.961V618.734H603.961L614.812 647H615L625.945 618.734H631.898V653H627.914V630.922C627.914 628.391 628.023 625.641 628.242 622.672H628.055L616.336 653H613.125ZM662.906 640.133C662.906 644.32 661.852 647.594 659.742 649.953C657.633 652.297 654.719 653.469 651 653.469C648.703 653.469 646.664 652.93 644.883 651.852C643.102 650.773 641.727 649.227 640.758 647.211C639.789 645.195 639.305 642.836 639.305 640.133C639.305 635.945 640.352 632.688 642.445 630.359C644.539 628.016 647.445 626.844 651.164 626.844C654.758 626.844 657.609 628.039 659.719 630.43C661.844 632.82 662.906 636.055 662.906 640.133ZM643.336 640.133C643.336 643.414 643.992 645.914 645.305 647.633C646.617 649.352 648.547 650.211 651.094 650.211C653.641 650.211 655.57 649.359 656.883 647.656C658.211 645.938 658.875 643.43 658.875 640.133C658.875 636.867 658.211 634.391 656.883 632.703C655.57 631 653.625 630.148 651.047 630.148C648.5 630.148 646.578 630.984 645.281 632.656C643.984 634.328 643.336 636.82 643.336 640.133ZM687.328 653V636.383C687.328 634.289 686.852 632.727 685.898 631.695C684.945 630.664 683.453 630.148 681.422 630.148C678.734 630.148 676.766 630.875 675.516 632.328C674.266 633.781 673.641 636.18 673.641 639.523V653H669.75V627.312H672.914L673.547 630.828H673.734C674.531 629.562 675.648 628.586 677.086 627.898C678.523 627.195 680.125 626.844 681.891 626.844C684.984 626.844 687.312 627.594 688.875 629.094C690.438 630.578 691.219 632.961 691.219 636.242V653H687.328ZM703.125 653H699.234V627.312H703.125V653ZM698.906 620.352C698.906 619.461 699.125 618.812 699.562 618.406C700 617.984 700.547 617.773 701.203 617.773C701.828 617.773 702.367 617.984 702.82 618.406C703.273 618.828 703.5 619.477 703.5 620.352C703.5 621.227 703.273 621.883 702.82 622.32C702.367 622.742 701.828 622.953 701.203 622.953C700.547 622.953 700 622.742 699.562 622.32C699.125 621.883 698.906 621.227 698.906 620.352ZM719.672 650.258C720.359 650.258 721.023 650.211 721.664 650.117C722.305 650.008 722.812 649.898 723.188 649.789V652.766C722.766 652.969 722.141 653.133 721.312 653.258C720.5 653.398 719.766 653.469 719.109 653.469C714.141 653.469 711.656 650.852 711.656 645.617V630.336H707.977V628.461L711.656 626.844L713.297 621.359H715.547V627.312H723V630.336H715.547V645.453C715.547 647 715.914 648.188 716.648 649.016C717.383 649.844 718.391 650.258 719.672 650.258ZM750.516 640.133C750.516 644.32 749.461 647.594 747.352 649.953C745.242 652.297 742.328 653.469 738.609 653.469C736.312 653.469 734.273 652.93 732.492 651.852C730.711 650.773 729.336 649.227 728.367 647.211C727.398 645.195 726.914 642.836 726.914 640.133C726.914 635.945 727.961 632.688 730.055 630.359C732.148 628.016 735.055 626.844 738.773 626.844C742.367 626.844 745.219 628.039 747.328 630.43C749.453 632.82 750.516 636.055 750.516 640.133ZM730.945 640.133C730.945 643.414 731.602 645.914 732.914 647.633C734.227 649.352 736.156 650.211 738.703 650.211C741.25 650.211 743.18 649.359 744.492 647.656C745.82 645.938 746.484 643.43 746.484 640.133C746.484 636.867 745.82 634.391 744.492 632.703C743.18 631 741.234 630.148 738.656 630.148C736.109 630.148 734.188 630.984 732.891 632.656C731.594 634.328 730.945 636.82 730.945 640.133ZM769.078 626.844C770.219 626.844 771.242 626.938 772.148 627.125L771.609 630.734C770.547 630.5 769.609 630.383 768.797 630.383C766.719 630.383 764.938 631.227 763.453 632.914C761.984 634.602 761.25 636.703 761.25 639.219V653H757.359V627.312H760.57L761.016 632.07H761.203C762.156 630.398 763.305 629.109 764.648 628.203C765.992 627.297 767.469 626.844 769.078 626.844ZM810.398 653L805.688 637.93C805.391 637.008 804.836 634.914 804.023 631.648H803.836C803.211 634.383 802.664 636.492 802.195 637.977L797.344 653H792.844L785.836 627.312H789.914C791.57 633.766 792.828 638.68 793.688 642.055C794.562 645.43 795.062 647.703 795.188 648.875H795.375C795.547 647.984 795.82 646.836 796.195 645.43C796.586 644.008 796.922 642.883 797.203 642.055L801.914 627.312H806.133L810.727 642.055C811.602 644.742 812.195 647 812.508 648.828H812.695C812.758 648.266 812.922 647.398 813.188 646.227C813.469 645.055 815.102 638.75 818.086 627.312H822.117L815.016 653H810.398ZM844.359 653V636.383C844.359 634.289 843.883 632.727 842.93 631.695C841.977 630.664 840.484 630.148 838.453 630.148C835.75 630.148 833.773 630.883 832.523 632.352C831.289 633.82 830.672 636.227 830.672 639.57V653H826.781V616.531H830.672V627.57C830.672 628.898 830.609 630 830.484 630.875H830.719C831.484 629.641 832.57 628.672 833.977 627.969C835.398 627.25 837.016 626.891 838.828 626.891C841.969 626.891 844.32 627.641 845.883 629.141C847.461 630.625 848.25 632.992 848.25 636.242V653H844.359ZM872.062 653L871.289 649.344H871.102C869.82 650.953 868.539 652.047 867.258 652.625C865.992 653.188 864.406 653.469 862.5 653.469C859.953 653.469 857.953 652.812 856.5 651.5C855.062 650.188 854.344 648.32 854.344 645.898C854.344 640.711 858.492 637.992 866.789 637.742L871.148 637.602V636.008C871.148 633.992 870.711 632.508 869.836 631.555C868.977 630.586 867.594 630.102 865.688 630.102C863.547 630.102 861.125 630.758 858.422 632.07L857.227 629.094C858.492 628.406 859.875 627.867 861.375 627.477C862.891 627.086 864.406 626.891 865.922 626.891C868.984 626.891 871.25 627.57 872.719 628.93C874.203 630.289 874.945 632.469 874.945 635.469V653H872.062ZM863.273 650.258C865.695 650.258 867.594 649.594 868.969 648.266C870.359 646.938 871.055 645.078 871.055 642.688V640.367L867.164 640.531C864.07 640.641 861.836 641.125 860.461 641.984C859.102 642.828 858.422 644.148 858.422 645.945C858.422 647.352 858.844 648.422 859.688 649.156C860.547 649.891 861.742 650.258 863.273 650.258ZM891.281 650.258C891.969 650.258 892.633 650.211 893.273 650.117C893.914 650.008 894.422 649.898 894.797 649.789V652.766C894.375 652.969 893.75 653.133 892.922 653.258C892.109 653.398 891.375 653.469 890.719 653.469C885.75 653.469 883.266 650.852 883.266 645.617V630.336H879.586V628.461L883.266 626.844L884.906 621.359H887.156V627.312H894.609V630.336H887.156V645.453C887.156 647 887.523 648.188 888.258 649.016C888.992 649.844 890 650.258 891.281 650.258ZM928.172 653L916.547 622.625H916.359C916.578 625.031 916.688 627.891 916.688 631.203V653H913.008V618.734H919.008L929.859 647H930.047L940.992 618.734H946.945V653H942.961V630.922C942.961 628.391 943.07 625.641 943.289 622.672H943.102L931.383 653H928.172ZM971.578 653L970.805 649.344H970.617C969.336 650.953 968.055 652.047 966.773 652.625C965.508 653.188 963.922 653.469 962.016 653.469C959.469 653.469 957.469 652.812 956.016 651.5C954.578 650.188 953.859 648.32 953.859 645.898C953.859 640.711 958.008 637.992 966.305 637.742L970.664 637.602V636.008C970.664 633.992 970.227 632.508 969.352 631.555C968.492 630.586 967.109 630.102 965.203 630.102C963.062 630.102 960.641 630.758 957.938 632.07L956.742 629.094C958.008 628.406 959.391 627.867 960.891 627.477C962.406 627.086 963.922 626.891 965.438 626.891C968.5 626.891 970.766 627.57 972.234 628.93C973.719 630.289 974.461 632.469 974.461 635.469V653H971.578ZM962.789 650.258C965.211 650.258 967.109 649.594 968.484 648.266C969.875 646.938 970.57 645.078 970.57 642.688V640.367L966.68 640.531C963.586 640.641 961.352 641.125 959.977 641.984C958.617 642.828 957.938 644.148 957.938 645.945C957.938 647.352 958.359 648.422 959.203 649.156C960.062 649.891 961.258 650.258 962.789 650.258ZM990.797 650.258C991.484 650.258 992.148 650.211 992.789 650.117C993.43 650.008 993.938 649.898 994.312 649.789V652.766C993.891 652.969 993.266 653.133 992.438 653.258C991.625 653.398 990.891 653.469 990.234 653.469C985.266 653.469 982.781 650.852 982.781 645.617V630.336H979.102V628.461L982.781 626.844L984.422 621.359H986.672V627.312H994.125V630.336H986.672V645.453C986.672 647 987.039 648.188 987.773 649.016C988.508 649.844 989.516 650.258 990.797 650.258ZM1007.77 650.258C1008.45 650.258 1009.12 650.211 1009.76 650.117C1010.4 650.008 1010.91 649.898 1011.28 649.789V652.766C1010.86 652.969 1010.23 653.133 1009.41 653.258C1008.59 653.398 1007.86 653.469 1007.2 653.469C1002.23 653.469 999.75 650.852 999.75 645.617V630.336H996.07V628.461L999.75 626.844L1001.39 621.359H1003.64V627.312H1011.09V630.336H1003.64V645.453C1003.64 647 1004.01 648.188 1004.74 649.016C1005.48 649.844 1006.48 650.258 1007.77 650.258ZM1027.29 653.469C1023.49 653.469 1020.49 652.312 1018.29 650C1016.1 647.688 1015.01 644.477 1015.01 640.367C1015.01 636.227 1016.02 632.938 1018.05 630.5C1020.1 628.062 1022.84 626.844 1026.28 626.844C1029.5 626.844 1032.05 627.906 1033.92 630.031C1035.8 632.141 1036.73 634.93 1036.73 638.398V640.859H1019.04C1019.12 643.875 1019.88 646.164 1021.31 647.727C1022.77 649.289 1024.8 650.07 1027.43 650.07C1030.2 650.07 1032.93 649.492 1035.63 648.336V651.805C1034.26 652.398 1032.95 652.82 1031.72 653.07C1030.5 653.336 1029.02 653.469 1027.29 653.469ZM1026.23 630.102C1024.17 630.102 1022.52 630.773 1021.29 632.117C1020.07 633.461 1019.35 635.32 1019.13 637.695H1032.56C1032.56 635.242 1032.02 633.367 1030.92 632.07C1029.83 630.758 1028.27 630.102 1026.23 630.102ZM1055.11 626.844C1056.25 626.844 1057.27 626.938 1058.18 627.125L1057.64 630.734C1056.58 630.5 1055.64 630.383 1054.83 630.383C1052.75 630.383 1050.97 631.227 1049.48 632.914C1048.02 634.602 1047.28 636.703 1047.28 639.219V653H1043.39V627.312H1046.6L1047.05 632.07H1047.23C1048.19 630.398 1049.34 629.109 1050.68 628.203C1052.02 627.297 1053.5 626.844 1055.11 626.844ZM1079.55 645.992C1079.55 648.383 1078.66 650.227 1076.88 651.523C1075.1 652.82 1072.6 653.469 1069.38 653.469C1065.98 653.469 1063.32 652.93 1061.41 651.852V648.242C1062.65 648.867 1063.97 649.359 1065.38 649.719C1066.8 650.078 1068.16 650.258 1069.48 650.258C1071.51 650.258 1073.07 649.938 1074.16 649.297C1075.26 648.641 1075.8 647.648 1075.8 646.32C1075.8 645.32 1075.37 644.469 1074.49 643.766C1073.63 643.047 1071.95 642.203 1069.43 641.234C1067.04 640.344 1065.34 639.57 1064.32 638.914C1063.32 638.242 1062.57 637.484 1062.07 636.641C1061.59 635.797 1061.34 634.789 1061.34 633.617C1061.34 631.523 1062.2 629.875 1063.9 628.672C1065.6 627.453 1067.94 626.844 1070.91 626.844C1073.67 626.844 1076.38 627.406 1079.02 628.531L1077.63 631.695C1075.05 630.633 1072.72 630.102 1070.62 630.102C1068.78 630.102 1067.39 630.391 1066.45 630.969C1065.52 631.547 1065.05 632.344 1065.05 633.359C1065.05 634.047 1065.22 634.633 1065.56 635.117C1065.92 635.602 1066.49 636.062 1067.27 636.5C1068.05 636.938 1069.55 637.57 1071.77 638.398C1074.82 639.508 1076.88 640.625 1077.94 641.75C1079.02 642.875 1079.55 644.289 1079.55 645.992Z" fill="white"/>
</svg>
