<?xml version="1.0" standalone="no"?>
<svg viewBox="-350 -150 1500 1500" style="width: 390px; height: 390px; justify-content: center; align-self: center; transform: scale(1, 1);" width="390" height="390" xmlns="http://www.w3.org/2000/svg"><rect x="-350" y="-150" width="100%" height="100%" fill="#ffd55a" rx="30"></rect><g transform="rotate(0 410.36882877349854 599.7965278625488)"><g transform="translate(0 459)"><path d="M21.7014 752.639C26.9744 760.65 37.3464 759.418 41.7994 753.213C92.5054 765.027 144.488 760.371 195.899 757.475C340.772 751.58 486.462 770.058 630.749 750.728C646.055 747.667 663.87 749.13 676.394 738.514C696.425 715.041 692.111 679.402 688.92 650.812C663.343 489.648 626.98 327.006 608.841 164.806C607.828 149.356 614.195 130.159 619.903 115.635C621.313 112.933 630.224 110.285 634.848 107.168C649.039 96.9822 646.738 78.7282 634.436 68.0172C594.605 39.9412 539.157 49.7519 496.905 60.1104C488.807 29.6976 479.705 9.69509 464.288 7.71422C434.943 3.94392 363.76 -7.57751 341.834 7.71422C331.344 15.0297 324.611 40.8069 317.06 53.3642C261.993 52.3862 150.23 -21.2878 127.253 61.6752C108.585 62.9642 90.0954 79.2622 93.6664 98.8202C69.4554 120.214 88.5514 152.293 88.2164 178.922C85.0334 235.421 54.4614 285.949 41.7424 340.527C12.6694 446.382 -20.2366 638.931 15.8224 742.256C15.0464 741.851 13.3514 742.461 14.4494 743.32C18.5324 744.472 19.0634 749.615 21.7014 752.639Z" transform="translate(63.99979 -41.44802)" fill="#FFFFFF" stroke="none"></path><path d="M794.424 692.582C794.405 692.652 794.375 692.732 794.344 692.802C795.164 694.062 795.785 695.462 796.195 696.882C798.454 704.662 793.345 723.472 786.794 727.302C781.034 730.671 774.325 731.112 767.835 731.612C760.545 732.182 753.245 732.732 745.945 733.292C693.534 737.312 641.135 741.892 588.695 745.312C587.631 745.381 586.566 745.455 585.499 745.528C574.464 746.291 563.278 747.063 552.865 742.623C543.875 738.782 536.825 731.802 532.594 723.001C528.255 713.982 526.224 693.312 525.515 683.362C525.294 680.302 525.094 677.192 525.005 674.092C523.264 673.602 521.755 672.251 521.075 669.902C514.935 648.632 513.325 625.332 512.275 603.282C511.245 581.602 510.414 559.962 510.244 538.251C509.634 459.892 514.034 381.562 521.215 303.552C524.815 264.421 528.944 225.342 533.845 186.342C533.955 185.432 534.075 184.532 534.195 183.623C516.635 191.751 497.625 196.222 478.185 196.102C462.674 196.001 445.414 193.352 431.225 185.982C429.835 191.972 428.495 197.972 427.165 203.972C408.915 286.322 397.764 369.972 392.975 454.162C390.585 496.302 389.884 538.542 390.844 580.742C391.314 601.842 392.505 622.932 394.044 643.982C394.805 654.492 395.674 665.012 396.254 675.532C396.581 681.304 396.438 687.083 396.294 692.858C396.267 693.976 396.239 695.094 396.214 696.212C397.085 696.972 397.865 697.862 398.524 698.862C404.904 708.532 407.724 720.421 406.224 731.921C405.404 738.171 401.644 742.953 394.954 743.192C363.065 744.352 331.174 745.512 299.284 746.671C260.078 748.102 220.876 749.789 181.676 751.464C179.012 669.158 173.162 586.973 171.301 504.635C170.726 479.227 170.558 453.81 171.061 428.399C171.162 423.25 163.162 423.25 163.06 428.399C162.893 436.831 162.819 445.261 162.784 453.692C156.792 448.993 150.129 445.267 143.735 441.074C139.417 438.242 135.406 445.166 139.697 447.981C147.281 452.955 155.353 457.129 161.928 463.484C162.195 463.742 162.472 463.939 162.755 464.105C162.902 545.095 168.447 626.027 171.968 706.911C172.619 721.873 173.195 736.837 173.678 751.806C159.073 752.429 144.469 753.049 129.865 753.652C115.914 754.232 101.954 754.682 88.0045 755.182L86.5313 755.235C74.146 755.683 61.5699 756.137 49.3545 753.742C38.0845 751.522 28.2445 745.412 21.8545 735.832C18.8445 731.312 16.8245 726.092 16.2645 720.742C13.7745 721.352 10.6645 720.203 9.64449 717.352C5.62449 706.182 1.26449 695.912 0.324488 683.902C-0.605512 672.112 0.594488 660.421 2.26449 648.762C5.56449 625.852 12.4445 603.732 18.6945 581.512C24.2345 561.782 30.3545 542.192 34.9445 522.203C39.7345 501.302 42.1045 480.382 42.5245 458.942C42.7107 449.282 42.6606 439.622 42.6106 429.963C42.5451 417.314 42.4795 404.667 42.9445 392.022C43.6545 372.462 45.5145 352.982 48.2945 333.602C53.8145 295.142 64.2245 257.212 80.7345 221.972C88.7645 204.812 97.9445 187.782 108.684 172.142C113.984 164.421 119.994 156.852 126.284 149.902C129.094 146.802 131.964 143.703 134.954 140.782C122.884 136.962 114.254 126.972 116.724 112.692C117.984 105.453 122.224 98.8324 127.924 94.2724C128.164 94.0724 128.414 93.8824 128.664 93.7034C122.684 83.8924 126.184 72.1624 132.864 63.7324C140.994 53.4724 153.154 46.1124 166.004 43.8124C165.904 43.5224 165.804 43.2224 165.704 42.9324C162.835 34.1124 166.064 25.0724 173.204 19.3924C184.834 10.1324 200.844 5.37339 215.234 2.58239C231.035 -0.477612 247.154 -0.757612 263.084 1.42139C270.504 2.44239 277.774 4.13239 284.895 6.43239C292.324 8.82239 300.005 11.2514 306.775 15.1524C317.094 21.0824 332.734 30.3524 328.704 44.7124C328.194 46.5124 325.844 45.9534 325.665 44.3024C324.844 36.8224 311.984 33.2924 306.074 30.6234C299.495 27.6424 292.344 24.6924 285.384 22.7514C271.194 18.7824 256.294 17.1624 241.585 17.8024C226.964 18.4424 212.314 21.5624 198.755 27.0624C195.005 28.5824 185.094 31.1524 183.414 35.6234C182.054 39.2224 187.044 43.2124 190.454 45.5824C191.145 46.0724 191.774 46.4924 192.274 46.8224C200.465 52.3224 195.475 67.0824 185.224 63.5324C184.484 63.2724 183.734 63.0624 182.984 62.8924C173.035 60.5824 161.895 65.1024 154.184 71.2124C151.084 73.6624 146.554 77.5524 146.074 81.8324C145.917 83.26 145.931 83.26 146.085 83.2597C146.213 83.2595 146.439 83.2592 146.744 84.0924C146.814 84.2924 146.895 84.4324 146.964 84.5324C147.624 84.2724 148.285 84.0124 148.954 83.7424C153.624 81.8624 158.904 85.4024 160.714 89.5124C162.704 94.0624 160.854 99.4024 156.634 101.962C154.824 103.062 152.944 103.792 151.034 104.203C145.964 106.282 140.124 109.373 137.984 114.072C135.914 118.612 137.794 120.542 142.044 121.421C148.246 122.711 155.467 121.349 161.735 120.167C161.885 120.139 162.035 120.111 162.184 120.082C170.285 118.552 178.264 116.432 186.164 114.082C190.087 112.92 194.025 111.705 197.976 110.487C225.561 101.979 253.823 93.2624 282.574 100.453C282.215 99.5824 281.865 98.7034 281.514 97.8224C280.764 95.9424 283.604 95.0424 284.594 96.5224C286.114 98.7924 287.604 101.082 289.074 103.402C290.044 104.352 290.725 105.482 291.145 106.692C299.215 119.703 306.564 133.312 313.254 147.222C318.854 157.171 323.884 167.432 328.294 177.962C334.065 191.782 338.574 205.932 342.595 220.302C346.134 230.852 349.424 241.482 352.474 252.182C355.544 259.842 359.044 267.032 360.374 275.292C360.594 276.642 360.285 278.032 359.624 279.192C367.004 309.242 372.525 339.751 376.304 370.462C377.435 379.712 378.435 388.972 379.254 398.262C382.025 367.682 385.714 337.182 390.275 306.802C396.635 264.432 404.764 222.322 414.624 180.632C419.235 161.182 423.944 141.692 430.355 122.751C435.344 108.001 441.074 93.0224 449.385 79.7424C443.215 79.2424 437.014 78.8624 430.884 78.1124C421.484 76.9724 412.115 75.6234 402.785 74.0124C393.044 72.3224 383.384 70.1624 373.784 67.7924C364.454 65.5014 355.465 62.0424 346.365 58.9824C344.965 58.5124 345.544 56.5824 346.965 56.8124C366.145 60.0014 385.754 62.0324 405.104 63.9924C405.819 64.0643 406.535 64.1365 407.252 64.2089C423.608 65.8599 440.738 67.5889 457.234 66.8024C459.005 66.7224 460.764 66.6124 462.525 66.4724C468.474 65.9924 471.174 72.9824 468.885 77.5524C463.915 87.4324 458.574 97.1624 454.284 107.352C450.034 117.442 446.595 127.882 443.504 138.373C439.754 151.132 436.435 164.022 433.344 176.972C439.214 178.152 445.075 179.392 451.025 180.072C460.074 181.123 469.084 181.421 478.185 180.892C496.254 179.832 514.214 175.082 530.195 166.552C532.455 165.342 534.665 165.222 536.594 165.822C538.315 153.612 540.214 141.442 542.315 129.312L542.315 129.052C542.884 114.842 544.895 100.742 545.615 86.5424C546.195 75.1524 545.895 63.4824 547.025 52.0824C546.984 51.8924 547.005 51.6924 547.084 51.5124C547.284 49.5524 547.525 47.6024 547.825 45.6624C547.914 45.0524 548.734 45.2034 548.905 45.6624C549.754 47.8524 550.474 50.1024 551.094 52.4024C570.604 60.0224 589.825 68.4324 609.705 75.0924C620.204 78.6124 630.834 81.7424 641.335 85.2514C646.775 87.0624 652.134 89.0124 657.505 91.0224C658.594 91.4324 659.674 91.8024 660.734 92.1714C661.375 91.6424 662.125 91.1714 662.995 90.7724C667.474 88.7034 675.164 87.3524 677.764 82.5524C677.807 82.4686 677.809 82.1721 677.812 81.9284C677.814 81.6512 677.816 81.4423 677.875 81.6924C677.794 81.2624 677.734 80.9724 677.705 80.7924C677.745 80.9924 677.794 81.2424 677.825 81.3024C677.825 81.2514 677.784 80.9624 677.665 80.2324C677.665 80.2224 677.654 80.2324 677.654 80.2324C677.674 80.5724 677.475 80.3624 677.344 80.1124C677.125 80.0224 676.875 79.9534 676.604 79.8924C671.705 78.8524 668.955 73.6324 669.505 69.0224C670.125 63.8024 674.344 60.9424 679.234 60.4324C681.444 60.2034 684.824 60.0724 686.544 58.5224C688.503 56.7557 686.794 55.9682 685.013 55.1471C684.657 54.9829 684.298 54.8174 683.964 54.6424C676.854 50.9324 669.055 48.5324 661.234 46.8924C653.234 45.2124 645.095 44.5424 636.935 44.9214C629.144 45.2924 621.465 48.1234 613.755 48.1524C613.214 48.1524 612.844 47.4124 613.294 47.0324C617.104 43.7724 622.274 42.3824 627.025 41.0324C632.495 39.4724 638.094 38.4324 643.755 37.8124C654.965 36.5724 666.334 37.3024 677.294 39.9324C686.935 42.2514 700.784 45.3024 701.905 57.1624C702.505 63.4624 699.984 68.1624 696.065 71.7824C697.984 76.0724 698.724 80.9924 698.084 85.4324C696.604 95.7124 687.955 103.442 678.445 107.542C678.415 107.792 678.365 108.042 678.324 108.282C676.655 117.222 673.885 126.182 671.174 134.862C669.625 139.852 668.034 144.822 666.404 149.782C688.745 174.602 705.185 204.632 716.695 235.873C744.385 311.022 741.034 392.142 755.145 470.052C762.334 509.742 775.575 547.842 784.945 587.001C789.674 606.772 793.634 626.712 795.474 646.982C796.345 656.612 796.695 666.292 796.365 675.953C796.174 681.382 796.135 687.402 794.424 692.582ZM586.684 343.882C568.594 416.373 556.454 490.162 550.504 564.642C549.294 579.762 548.444 594.862 547.964 609.972C547.484 613.912 547.024 617.862 546.594 621.812C544.964 636.751 543.714 651.932 543.824 666.972C543.874 673.722 544.084 680.442 544.544 687.171C543.744 684.921 543.004 682.662 542.284 680.412C540.814 675.802 539.844 671.022 538.344 666.442C537.104 662.652 535.504 659.022 534.014 655.352L534.014 655.342C534.351 644.088 533.864 632.756 533.38 621.489C533.217 617.71 533.055 613.94 532.924 610.182C532.254 590.802 531.424 571.442 530.994 552.052C530.134 513.272 530.564 474.462 531.964 435.703C534.774 357.602 541.874 279.873 549.034 202.092C551.024 180.462 553.164 158.842 554.644 137.171C556.134 115.272 556.734 93.3324 556.904 71.3734C556.914 69.7924 554.514 69.3734 554.074 70.9024C553.684 65.6924 552.995 60.4924 551.844 55.4624C569.094 66.4624 587.284 75.9724 605.115 85.9724C614.505 91.2424 623.854 96.6024 633.534 101.322C638.854 103.921 644.224 106.312 649.704 108.572C650.611 108.946 651.512 109.342 652.41 109.737C657.139 111.817 661.812 113.872 667.064 112.501C667.604 112.362 668.115 112.162 668.604 111.902C667.894 113.251 667.185 114.592 666.505 115.953C664.145 120.642 661.894 125.352 659.714 130.102C659.135 130.532 658.625 131.123 658.224 131.892C657.164 133.962 656.135 136.052 655.134 138.171C654.935 137.982 654.734 137.792 654.534 137.602C653.695 136.812 652.534 138.001 653.274 138.862C653.615 139.251 653.945 139.632 654.274 140.022C647.755 154.052 642.454 168.802 636.995 183.203C630.284 200.902 623.924 218.732 617.934 236.682C606.125 271.992 595.704 307.762 586.684 343.882ZM656.703 374.626C646.253 381.017 632.531 376.584 622.188 372.352C617.479 370.425 619.553 362.689 624.315 364.638L624.416 364.68C632.284 367.9 643.725 372.582 651.997 368.109C660.287 363.625 660.661 351.291 660.724 343.152C660.763 337.998 668.761 338.002 668.724 343.152C668.64 354.225 667.159 368.23 656.703 374.626ZM215.444 397.839C213.711 397.71 212.027 396.705 211.587 394.903C208.886 383.845 206.771 371.799 209.283 360.52C210.403 355.489 218.114 357.63 216.997 362.646C215.016 371.54 216.59 381.154 218.647 390.023C241.547 391.026 264.205 384.767 286.388 378.64C292.374 376.987 298.325 375.343 304.236 373.854C309.24 372.594 311.352 380.312 306.363 381.568C300.41 383.068 294.415 384.717 288.384 386.377C264.521 392.943 240.096 399.664 215.444 397.839ZM695.284 536.687C695.338 591.434 700.041 656.977 706.804 711.271C707.432 716.312 715.44 716.375 714.804 711.271C708.041 656.977 703.338 591.434 703.284 536.687C703.279 531.54 695.279 531.531 695.284 536.687ZM610.581 600.914C617.821 610.292 626.818 617.68 637.36 623.084C641.933 625.429 645.987 618.529 641.398 616.177C632.164 611.443 623.862 605.13 617.49 596.876C614.388 592.858 607.435 596.837 610.581 600.914ZM233.591 669.165C263.557 646.15 294.714 624.812 328.055 606.957C332.595 604.525 328.56 597.617 324.017 600.048C290.676 617.904 259.52 639.243 229.553 662.257C225.526 665.349 229.507 672.302 233.591 669.165Z" transform="translate(11.99981 -26.99999)" fill="#000000" fill-rule="evenodd" stroke="none"></path></g><g transform="translate(225 0)"><g><g><path d="M384.074 176.065C380.362 146.444 368.702 114.995 356.439 87.38C328.865 28.994 265.738 20.9554 209.147 8.91741C153.303 0.787412 94.1677 -6.55359 39.1657 9.66741C8.24474 17.2424 -3.83226 54.0684 1.04774 83.1294C3.83274 101.238 12.0757 118.377 19.1047 135.16C33.0757 169.626 41.9397 206.525 41.9547 243.841C40.9957 268.227 37.5537 296.061 65.5777 306.39C92.2448 319.651 94.4977 355.599 127.889 375.995C141.391 403.344 178.17 405.751 204.641 412.095C221.372 415.297 238.292 417.654 255.258 419.176C304.384 425.471 343.684 411.236 369.4 367.474C386.609 340.841 399.424 310.089 396.258 277.811C393.105 243.821 387.852 210.009 384.074 176.065Z" transform="translate(23.99986 75.99989)" fill="#FFFFFF" stroke="none"></path><path d="M249.317 2.38364C246.695 -0.129364 242.375 -1.21936 239.571 1.95864C235.2 2.81364 231.109 5.05064 228.08 8.44664C226.905 6.91864 225.641 5.44264 224.283 4.02864C222.273 1.94864 218.613 1.41764 216.133 2.97764C212.893 5.01764 210.053 7.47764 207.643 10.2676C205.573 10.2986 203.503 10.3376 201.443 10.3876C198.913 7.19864 195.593 4.91764 190.933 5.10864C185.853 5.30764 182.143 7.78764 179.423 11.4576L177.113 11.6176C176.603 10.7676 176.093 9.91764 175.543 9.07764C173.023 5.21864 168.573 4.99764 165.153 7.73864C163.063 9.40864 161.173 11.2676 159.473 13.2586C157.863 13.4376 156.263 13.6176 154.663 13.8186C151.783 10.8986 148.053 8.84764 143.923 8.68764C137.293 8.43764 133.343 12.0376 131.033 17.2076C131.003 17.2186 130.983 17.2186 130.963 17.2186C126.543 13.6876 120.773 11.7476 115.153 13.1376C110.203 14.3676 106.983 17.0776 104.963 20.5776L103.673 20.8476C99.6227 19.3776 95.0527 19.1986 90.5627 20.9486C86.6727 22.4576 83.3427 24.9686 80.8127 28.1086C80.0627 28.3476 79.3127 28.5876 78.5727 28.8476C77.4527 29.2386 76.3827 29.6676 75.3527 30.1486C73.5327 29.8776 71.5527 29.8586 69.4227 30.1586C63.9527 30.9086 59.5027 34.3876 57.2227 39.1876C54.5427 38.8986 51.7627 39.2476 49.1227 40.4376C42.6927 43.3476 38.3527 49.7586 37.0027 56.5776C36.5627 58.7876 36.4527 60.9686 36.6127 63.1176C33.9727 63.2076 31.8127 64.0576 29.8827 66.3876C27.5427 69.1986 25.5227 72.9886 24.4427 76.4776C24.2727 77.0486 24.1227 77.6176 24.0027 78.1986C20.8027 80.9286 18.6127 84.7786 17.8627 89.1876C17.4127 91.7986 17.3727 94.2076 17.6527 96.4686C13.4727 99.1376 10.2027 103.159 8.82267 108.208C7.13267 114.338 7.96267 120.168 10.4127 125.418L10.2427 125.958C6.82267 127.848 3.91267 130.719 1.87267 134.838C-2.67367 143.999 1.58427 151.447 8.99132 157.292L9.55267 157.728C9.57267 157.819 9.59267 157.909 9.60267 157.998C7.18267 160.888 5.39267 164.319 4.50267 168.088C2.31267 177.359 5.92267 183.489 11.9227 187.878C7.82267 192.958 5.77267 199.558 7.51267 206.179C9.25267 212.759 14.1327 217.688 20.0327 220.688C20.1127 220.978 20.2027 221.279 20.2927 221.569C19.2127 223.868 18.5127 226.418 18.3327 229.248C17.7727 237.788 22.6927 245.489 29.7427 249.958C29.9927 250.469 30.2527 250.969 30.5227 251.458C28.6027 255.348 28.2827 259.668 30.8027 264.359C32.6227 267.759 35.6727 270.138 39.1127 271.728C40.2127 274.078 41.9227 275.989 43.9927 277.378C43.5627 280.188 43.6827 283.098 44.5027 285.978C46.1027 291.549 49.4727 295.808 53.7427 298.618C53.5227 299.109 53.2927 299.588 53.0927 300.098C50.4627 306.859 57.7427 313.558 64.2227 312.478C63.0127 315.338 62.0327 318.308 61.3327 321.359C57.2027 339.449 62.1227 362.859 79.5327 372.529C83.8127 374.899 88.3627 375.899 93.1727 376.518C98.3427 377.179 104.193 377.208 108.333 380.819C115.113 386.739 117.553 397.489 121.843 405.128C127.473 415.159 134.793 424.399 143.253 432.179C147.703 436.279 152.513 440.038 157.543 443.378C157.928 443.634 158.32 443.9 158.718 444.17C163.125 447.158 168.236 450.624 173.373 447.368C174.673 446.538 175.683 445.078 175.603 443.478C175.353 438.888 172.703 436.819 169.003 434.649L168.003 434.056C164.348 431.863 160.811 429.455 157.493 426.779C150.653 421.248 144.383 414.808 139.263 407.638C134.837 401.446 131.507 394.824 128.268 388.021L126.813 384.949C123.323 377.569 118.663 370.438 111.003 366.909C102.823 363.138 92.6827 365.319 85.1127 360.239C78.7227 355.949 75.3327 347.958 74.1627 340.609C72.0227 327.299 76.9227 313.688 87.1927 305.319C90.1527 304.268 93.0927 303.159 96.0027 301.938C98.2927 300.969 100.583 299.978 102.823 298.909C105.853 298.638 108.913 298.808 111.823 299.388C117.603 300.558 124.543 302.529 129.423 306.549C127.213 305.569 125.053 304.449 122.933 303.498C121.323 302.779 120.143 304.799 121.563 305.838C124.953 308.348 128.903 310.719 131.763 313.828C132.963 315.128 135.073 314.978 136.293 313.828C141.273 309.113 139.488 302.804 137.785 296.783C137.118 294.426 136.463 292.113 136.233 289.958C135.853 286.458 137.103 284.509 140.053 282.618C144.613 279.688 149.473 277.578 153.423 273.719C160.973 266.348 163.583 255.918 164.413 245.728C164.966 238.857 164.847 231.941 164.728 225.023C164.636 219.679 164.545 214.334 164.763 209.009C165.273 196.509 165.733 183.168 168.753 170.978C169.953 166.159 171.883 162.239 176.643 160.199C182.193 157.828 188.733 157.228 194.623 156.179L197.472 155.678C224.077 151.06 250.885 147.891 277.823 146.018C309.409 143.836 341.093 143.45 372.72 144.771C377.039 146.767 381.075 149.395 384.683 152.571C393.894 179.664 400.989 207.37 405.603 235.649C410.823 267.628 414.053 300.128 416.503 332.429L416.588 333.571C417.828 350.336 418.336 367.445 414.963 383.998C412.253 397.279 407.163 409.848 400.133 421.429C385.863 444.929 363.663 463.799 337.573 472.808C321.803 478.248 305.133 480.328 288.503 479.159C271.443 477.969 255.803 472.649 240.413 465.489C232.283 461.708 225.283 473.009 233.273 477.708C260.373 493.688 295.823 496.438 326.043 489.458C355.313 482.688 381.223 465.498 399.533 441.779C418.893 416.688 427.913 386.359 427.893 354.828C427.885 340.889 426.682 326.951 425.331 313.058L423.794 297.429C422.228 281.734 420.296 266.099 417.793 250.518C412.773 219.286 405.461 187.417 391.514 158.776C394.026 159.556 396.974 157.773 397.887 155.246L398.099 154.685C400.223 149.345 404.227 146.362 407.458 141.788C409.036 139.556 409.831 137.187 409.978 134.773C410.061 134.5 410.145 134.229 410.213 133.949C410.305 133.733 410.395 133.515 410.484 133.295L411.011 131.977C417.171 128.342 420.257 121.323 418.522 114.52C420.094 113.021 421.491 111.365 422.629 109.53C427.3 104.208 428.69 96.3556 425.793 89.7756C428.355 87.6456 430.636 85.2096 432.433 82.3186C436.613 75.5976 437.373 66.3186 433.513 59.2786C430.693 54.1486 425.733 50.9976 420.273 50.1676C420.063 49.0486 419.833 47.9286 419.563 46.8276C421.493 39.9486 420.193 32.9286 414.363 28.0776C412.523 26.5486 410.433 25.3876 408.213 24.5686C407.993 24.3276 407.783 24.0876 407.563 23.8586C403.443 19.5086 398.513 16.4576 393.173 14.3186C390.133 7.17864 383.593 1.37764 375.703 0.807636C369.607 0.373636 364.32 3.34964 360.001 7.48564C357.271 4.61864 353.843 2.40964 349.939 1.23064C347.25 0.418636 344.274 0.216636 341.454 0.728636C337.168 0.746636 333.322 2.60664 330.501 5.84264C325.659 2.06964 319.817 -0.367364 313.74 0.0646357C309.392 0.373636 305.902 2.59464 303.743 5.70764C301.578 3.51064 299.052 1.84264 295.507 1.64464C291.535 1.42364 288.428 2.88564 285.965 5.21564C280.852 1.78964 274.653 0.489636 267.653 3.04864C266.673 3.40864 265.773 3.82764 264.933 4.29864C261.471 4.17164 257.77 4.17164 254.24 4.62464C252.678 3.63464 251.024 2.88664 249.317 2.38364ZM62.4147 92.1756L62.2091 92.3268C59.0662 94.7077 59.5717 97.6908 62.1577 100.425C64.8117 103.23 60.5737 107.478 57.9147 104.667C55.5247 102.14 53.6967 99.0256 53.9337 95.4336C54.1777 91.7376 56.4957 89.0576 59.3857 86.9946C62.5377 84.7456 65.5307 89.9516 62.4147 92.1756ZM45.7417 137.499C48.6427 134.939 44.3857 130.708 41.4987 133.257C38.8047 135.635 36.8067 138.865 37.3257 142.58C37.8547 146.366 40.7097 149.039 43.8347 150.928C47.1467 152.931 50.1657 147.745 46.8627 145.747L46.4916 145.52C45.1051 144.659 43.4823 143.475 43.2477 141.781C42.9987 139.981 44.5217 138.576 45.7417 137.499ZM95.7607 147.408L95.6733 147.657C94.6511 150.718 95.6677 153.061 98.7027 154.388C100.185 155.035 100.536 157.227 99.7787 158.492C98.8777 159.995 97.1697 160.222 95.6747 159.568C90.2807 157.21 87.9797 151.273 89.9757 145.812C91.2927 142.209 97.0887 143.775 95.7607 147.408ZM92.3927 319.508C97.0627 316.848 103.343 319.728 107.863 321.988C113.373 324.738 118.843 328.888 122.213 334.088C126.803 341.168 116.013 346.888 111.183 340.538C108.213 336.628 105.843 332.688 102.243 329.268C98.9527 326.128 94.1827 324.028 92.2927 319.888C92.2227 319.748 92.2427 319.588 92.3927 319.508Z" transform="translate(-6.000067 12.00026)" fill="#000000" fill-rule="evenodd" stroke="none"></path></g></g><g transform="translate(159 186)"><g><path d="M161.26 3.75829C151.862 0.105287 135.062 -2.96371 127.162 5.02229C122.951 9.28029 125.484 15.1363 130.37 17.1713C133.516 18.4822 136.949 18.183 140.337 17.8877C141.669 17.7716 142.993 17.6562 144.29 17.6393C148.84 17.5813 153.361 18.1643 157.793 19.1723C161.357 19.9847 164.836 21.1098 168.293 22.2873L170.595 23.0773C171.32 23.3264 172.054 23.61 172.797 23.8967C175.616 24.9851 178.553 26.1192 181.532 25.5913C182.229 25.4673 182.565 24.7623 182.634 24.1453C183.089 20.0982 179.892 16.2352 177.024 13.4278L176.386 12.8144L175.972 12.4263C171.724 8.48129 166.624 5.84429 161.26 3.75829ZM33.6232 10.8211L35.7926 10.2262L38.0047 9.62924L39.5005 9.23374C49.7753 6.54436 61.1082 4.17756 71.2972 5.33309C75.0132 5.75509 78.0292 7.84609 78.5552 11.7391C78.9982 15.0241 76.8752 19.2621 73.2622 19.8461C61.2952 21.7821 49.0442 21.1541 37.0222 23.1501C31.0352 24.1431 25.0942 25.3761 19.1302 26.4871C14.5952 27.3331 9.90917 27.6301 5.33517 28.3141L6.38617 28.4601C6.75417 28.5101 6.66217 29.1291 6.29917 29.1041C4.79154 28.9536 3.28162 28.9302 1.7694 29.0359L1.12117 29.0891C0.134167 29.2281 -0.447833 28.0501 0.432167 27.4521C6.00517 23.6711 10.7342 19.5731 16.9742 16.7861C22.3712 14.3761 27.9262 12.3891 33.6232 10.8211ZM166.634 45.6655C168.478 45.1131 169.779 45.3742 171.441 46.2403C172.719 46.9059 173.589 47.9568 174.088 49.1838C174.599 50.4395 174.707 51.8878 174.454 53.2296C173.406 58.8007 170.042 63.7442 165.503 66.9282C161.091 70.0227 155.589 71.452 150.049 70.2614C146.003 69.3919 140.008 65.5531 136.85 60.8711C135.504 58.8752 134.671 56.736 134.581 54.6232C134.495 52.6084 135.008 50.5771 137.676 47.8994C137.936 47.8184 138.208 47.7747 138.477 47.7747C139.138 47.7747 139.821 48.0516 140.274 48.4513C141.469 49.502 142.312 50.8319 143.178 52.2626L143.41 52.6451C143.799 53.2818 144.2 53.9109 144.69 54.476C146.449 56.5028 149.003 58.2218 151.683 58.6693C154.167 59.0845 156.407 58.3485 158.181 56.9599C160.257 55.3353 161.713 52.8432 162.253 50.1809C162.472 49.1021 163.036 48.1297 163.818 47.3478C164.607 46.5588 165.615 45.9718 166.634 45.6655ZM49.1162 69.4299C47.1005 71.4882 44.4385 72.6496 41.0316 71.9587C38.3694 71.4193 33.3005 68.7424 29.2512 64.6199C26.481 61.7996 24.1647 58.2755 23.535 54.193C23.3888 53.2449 22.8856 52.6371 22.225 52.2543C21.7033 51.952 21.0154 51.8002 20.2661 51.876C19.6299 51.9404 18.9544 52.1708 18.4324 52.4762C17.4395 53.0572 17.0334 53.8821 16.9509 54.498C16.1543 60.4416 18.4501 66.3391 22.0288 71.3116C26.8584 78.0223 33.951 82.9399 38.1196 84.0909C45.2534 86.0617 52.7703 84.4928 58.3124 79.5277C62.7443 75.5578 65.0159 70.3856 67.1236 65.0671L67.53 64.0361C68.0041 62.8293 68.4745 61.6313 68.9729 60.4461C69.9719 58.0711 69.652 56.0181 68.6834 54.418C67.6103 52.6454 65.6296 51.3976 63.4246 51.0143C61.3865 50.6601 59.2055 51.0476 57.4838 52.2925C56.0293 53.3441 54.8564 55.0104 54.4397 57.4743C53.762 61.4809 52.1899 66.0779 49.4178 69.111L49.1162 69.4299ZM129.748 108.039C137.872 96.6602 126.366 85.9571 118.814 81.367C116.836 79.9471 118.406 75.2433 122.634 75.9703C161.031 82.5673 141.136 148.708 92.1122 112.413C86.2756 107.704 93.3436 97.3338 99.6344 101.366C99.9534 101.611 100.288 101.869 100.637 102.139C107.704 107.603 120.636 117.601 129.748 108.039ZM138.581 156.822C135.281 161.137 129.306 164.442 122.614 166.022C116.238 167.528 109.191 167.466 103.109 165.149L102.587 164.941C98.0396 163.053 93.6748 159.239 92.0173 155.26C91.3584 153.678 91.1354 152.069 91.5864 150.569C91.9921 149.219 92.9432 147.976 94.5273 146.909C95.0247 146.574 95.6918 146.55 96.3274 146.662C97.116 146.801 97.8933 147.17 98.3623 147.668C100.964 150.435 104.739 153.132 109.207 153.086C112.655 153.051 115.47 151.69 118.2 150.151L120.119 149.053C121.97 147.996 123.847 147.004 125.971 146.551C129.773 145.739 134.384 147.222 137.194 149.67C138.419 150.737 139.309 151.991 139.551 153.343C139.755 154.477 139.469 155.661 138.581 156.822Z" transform="translate(51.99983 63.00011)" fill="#000000" fill-rule="evenodd" stroke="none"></path></g></g><g transform="translate(123 338)"><g><path d="M268.388 67.08C270.922 71.4266 273.06 76.0406 274.758 80.8047C275.556 83.0421 281.542 107.261 277.755 121.138C274.111 134.497 267.519 147.166 259.18 158.287C251.52 168.499 241.863 176.987 229.899 181.682C214.289 187.81 195.674 186.087 179.386 184.505C159.043 182.523 139.049 177.998 119.705 171.451C110.028 168.188 100.531 164.424 91.173 160.35C81.9752 156.356 72.1982 152.421 63.5797 147.246C56.1695 142.791 49.8479 135.783 43.796 129.708C34.2586 120.137 24.931 110.156 16.692 99.4255C9.0022 89.4149 3.24985 80.144 1.30244 67.4804C-1.70965 47.8457 1.09105 27.2169 3.76515 7.52062C3.98141 5.92774 4.19685 4.34095 4.40831 2.76129C4.4882 2.10059 5.52682 1.75021 5.74653 2.43094C5.72656 2.06054 5.70658 1.69115 5.68661 1.32075C5.6167 -0.261938 7.92364 -0.471162 8.35307 0.959366C13.6061 18.3389 22.1847 34.1548 34.5183 47.5191C51.5017 65.9128 73.2059 78.6794 94.2819 91.9486C94.989 91.2819 95.8478 90.8083 96.7576 90.6282C99.8046 76.9215 109.88 64.1789 119.845 55.5076C149.016 30.1415 195.754 19.2389 231.876 34.7054C247.146 41.2524 260.009 52.7056 268.388 67.08ZM163.836 57.1894C143.492 62.2859 125.821 76.2258 117.725 95.193C117.113 99.3325 117.163 103.521 118.04 107.674C135.307 119.809 156.513 126.186 177.735 123.714C184.346 115.511 191.665 101.523 202.782 99.9091C211.011 98.7154 216.836 104.137 222.687 109.584C225.693 112.382 228.706 115.187 232.056 117.104C232.606 117.419 233.206 117.725 233.827 118.023C240.161 117.498 246.515 116.018 251.84 112.401C257.296 108.697 259.362 103.683 260.334 97.7918C260.056 96.6676 259.757 95.5494 259.439 94.4392C257.202 86.6309 254.017 79.0127 249.333 72.3566C245.398 66.7396 240.165 61.9545 233.744 59.4228C226.224 56.4597 217.665 55.828 209.686 55.0572C194.456 53.5756 178.777 53.4564 163.836 57.1894Z" fill="#000000" fill-rule="evenodd" stroke="none"></path></g></g><g transform="translate(47 241)"></g></g></g></svg>